<?xml version="1.0" encoding="utf-8"?>
<!-- Generator: Adobe Illustrator 23.0.1, SVG Export Plug-In . SVG Version: 6.00 Build 0)  -->
<svg version="1.1" id="Layer_1" xmlns="http://www.w3.org/2000/svg" xmlns:xlink="http://www.w3.org/1999/xlink" x="0px" y="0px"
	 viewBox="0 0 600 600" style="enable-background:new 0 0 600 600;" xml:space="preserve">
<style type="text/css">
	.st0{fill:url(#SVGID_1_);}
	.st1{fill:#FFFFFF;}
	.st2{fill:url(#SVGID_2_);}
	.st3{fill:url(#SVGID_3_);}
	.st4{fill:url(#SVGID_4_);}
	.st5{fill:url(#SVGID_5_);}
	.st6{fill:url(#SVGID_6_);}
	.st7{fill:url(#SVGID_7_);}
	.st8{fill:url(#SVGID_8_);}
	.st9{fill:url(#SVGID_9_);}
	.st10{fill:url(#SVGID_10_);}
	.st11{fill:url(#SVGID_11_);}
	.st12{fill:url(#SVGID_12_);}
	.st13{fill:url(#SVGID_13_);}
	.st14{fill:url(#SVGID_14_);}
	.st15{fill:url(#SVGID_15_);}
	.st16{fill:url(#SVGID_16_);}
</style>
<g>
	<g>
		
			<linearGradient id="SVGID_1_" gradientUnits="userSpaceOnUse" x1="312.8112" y1="259.4023" x2="359.2261" y2="259.4023" gradientTransform="matrix(-0.2829 -0.9592 -0.9592 0.2829 392.605 658.1621)">
			<stop  offset="0" style="stop-color:#FF0069"/>
			<stop  offset="0.9944" style="stop-color:#FF6900"/>
		</linearGradient>
		<path class="st0" d="M26.95,417.92l46.13,7.61c3,0.5,5.97-0.61,4.61-5.22l-10.6-35.95c-1.53-5.17-4.47-3.92-6.71-1.88
			l-34.62,31.42C24.33,415.2,25.03,417.6,26.95,417.92z"/>
		<path class="st1" d="M46.18,413.95l28.51,8.18c1.68,0.49,3.23-1.07,2.73-2.75l-10.06-34.11c-0.5-1.67-2.64-2.14-3.78-0.83
			l-19.51,22.34C41.94,409.23,43.07,413.05,46.18,413.95z"/>
	</g>
</g>
<g>
	<g>
		
			<linearGradient id="SVGID_2_" gradientUnits="userSpaceOnUse" x1="101.0095" y1="-86.2718" x2="147.4244" y2="-86.2718" gradientTransform="matrix(0.7108 -0.7035 -0.7035 -0.7108 329.4286 593.57)">
			<stop  offset="0" style="stop-color:#FF0069"/>
			<stop  offset="0.9944" style="stop-color:#FF6900"/>
		</linearGradient>
		<path class="st2" d="M460.45,552.44l15.15,44.23c0.98,2.87,3.36,4.97,6.78,1.59l26.64-26.37c3.83-3.79,1.34-5.79-1.52-6.8
			l-44.07-15.61C461.61,548.84,459.82,550.59,460.45,552.44z"/>
		<path class="st1" d="M473.05,567.49l6.3,28.98c0.37,1.71,2.47,2.34,3.72,1.1l25.27-25.01c1.23-1.23,0.64-3.34-1.06-3.72
			l-28.92-6.6C475.2,561.52,472.37,564.33,473.05,567.49z"/>
	</g>
</g>
<g>
	<linearGradient id="SVGID_3_" gradientUnits="userSpaceOnUse" x1="300" y1="9.094947e-13" x2="300" y2="600">
		<stop  offset="5.586592e-03" style="stop-color:#FF6900"/>
		<stop  offset="1" style="stop-color:#FF0069"/>
	</linearGradient>
	<path class="st3" d="M527.38,330.03c4.61-15.86,4.76-41.87,0.34-57.78L455.3,11.88c-4.43-15.92-11.37-15.84-15.42,0.18
		l-49.41,195.17c-4.05,16.02-20.89,29.12-37.41,29.12H246.49c-16.52,0-33.35-13.11-37.39-29.12L159.81,12.07
		c-4.05-16.02-10.97-16.1-15.39-0.18L72.14,272.24c-4.42,15.92-4.04,41.85,0.85,57.64l44.12,142.4
		c4.89,15.78,19.49,37.08,32.44,47.34l77.97,61.73c12.95,10.26,37.07,18.65,53.59,18.65h41.47c16.52,0,40.64-8.39,53.59-18.65
		l77.97-61.73c12.95-10.26,27.32-31.63,31.93-47.49L527.38,330.03z"/>
	<path class="st1" d="M192.28,180.81c-2.64,0-6.15,1.69-7.79,3.77l-90,113.5c-1.64,2.07-2.48,5.87-1.85,8.44l44.65,184.24
		c0.62,2.57,3.18,5.36,5.69,6.21l48.97,16.54c2.5,0.85,5.9,3.23,7.54,5.31l52.1,65.83c1.64,2.07,5.15,3.77,7.79,3.77h84.69
		c2.64,0,6.12-1.72,7.73-3.82l51.05-66.69c1.61-2.1,4.98-4.47,7.51-5.26l50.08-15.78c2.52-0.79,5.12-3.54,5.78-6.1l47.34-183.79
		c0.66-2.56-0.2-6.31-1.9-8.33l-96.23-114.16c-1.7-2.02-5.26-3.67-7.9-3.67H192.28z"/>
	<g>
		<linearGradient id="SVGID_4_" gradientUnits="userSpaceOnUse" x1="181.8448" y1="388.2272" x2="185.2241" y2="283.4705">
			<stop  offset="0" style="stop-color:#FF0069"/>
			<stop  offset="0.9944" style="stop-color:#FF6900"/>
		</linearGradient>
		<path class="st4" d="M233.87,348.26c-0.61-0.13-1.21-0.15-1.71-0.15l-1.03,0.01l-26.41,0v-13.93l4,0.01c1.07,0,2.13,0,3.19-0.02
			c3.58-0.04,4.98-0.81,5.81-3.69c0.59,0.31,1.17,0.61,1.74,0.91c2.56,1.34,4.97,2.61,7.49,3.76c1.65,0.76,3.54,1.03,5.17,1.19
			c0.17,0.02,0.34,0.03,0.51,0.03c1.84,0,3.35-1.04,4.05-2.79c0.76-1.91,0.33-3.81-1.23-5.37c-0.76-0.76-1.73-1.26-2.61-1.71
			c-0.92-0.47-1.84-0.92-2.77-1.36c-1.45-0.7-2.95-1.42-4.35-2.21c-1.95-1.1-3.85-2.3-5.87-3.58c-0.4-0.25-0.81-0.51-1.22-0.76
			c0.39-0.26,0.74-0.48,1.08-0.7l3.16-1.98c2.47-1.55,4.94-3.1,7.38-4.69c0.99-0.65,1.87-1.45,2.53-2.32
			c1.45-1.91,1.48-3.72,0.1-5.52c-0.92-1.2-2.12-1.83-3.47-1.83c-0.63,0-1.27,0.14-1.92,0.41c-1.23,0.52-2.32,1.25-3.38,1.97
			l-0.14,0.09c-3.21,2.16-6.41,4.34-9.72,6.58l-3.2,2.18l-5.44-5.41l4.05-2.55c2.41-1.51,4.81-3.02,7.2-4.55
			c0.91-0.58,1.63-1.17,2.17-1.8c1.68-1.91,1.83-4.78,0.36-6.68c-0.87-1.12-2.13-1.74-3.54-1.74c-1,0-2.06,0.32-3.05,0.93
			c-0.68,0.42-1.29,0.9-1.88,1.37c-0.35,0.28-0.71,0.57-1.07,0.83c-2.45,1.75-4.91,3.5-7.43,5.28l-2.06,1.46
			c-0.01-0.02-0.03-0.04-0.04-0.06c-0.42-0.55-0.76-0.99-1.02-1.44c-0.61-1.06-1.2-2.13-1.8-3.19c-0.8-1.43-1.59-2.87-2.44-4.28
			c-0.83-1.4-1.67-2.47-2.56-3.28c-0.69-0.63-1.54-0.97-2.47-0.97c-0.75,0-1.52,0.21-2.3,0.64c-1.62,0.88-2.38,2.44-2.09,4.27
			c0.2,1.28,0.58,2.57,1.1,3.73c5.2,11.61,12.91,21.48,22.94,29.34h-49.34c7.93-6.38,14.61-14.26,20.39-24.06
			c1.83-3.1,2.2-5.65,1.1-7.58c-1.1-1.95-3.5-2.94-7.13-2.96c-3.29-0.02-6.58-0.02-9.88-0.02c-4.56,0-9.12,0.01-13.67,0.03
			c-1.25,0.01-2.38,0.18-3.36,0.51c-2.06,0.69-3.14,2.54-2.84,4.83c0.28,2.14,1.61,3.53,3.64,3.84c0.69,0.1,1.36,0.11,1.94,0.11
			l8.96,0c2.88,0,5.76,0,8.65,0.02c0.47,0,0.97,0.08,1.62,0.19c-2.94,4.91-6.61,9.25-11.96,14.11c-0.25-0.2-0.5-0.39-0.75-0.59
			c-1.06-0.83-2.07-1.62-3.13-2.34l-0.42-0.29c-3.26-2.19-6.63-4.46-10.06-6.53c-0.8-0.48-1.64-0.72-2.51-0.72
			c-1.37,0-2.68,0.64-3.58,1.75c-1.27,1.57-1.22,4.04,0.12,5.88c0.66,0.9,1.54,1.61,2.24,2.14c0.6,0.45,1.24,0.88,1.86,1.3
			c0.67,0.45,1.34,0.89,1.98,1.39c1.64,1.28,3.26,2.6,4.96,3.99l1.08,0.88c-0.46,0.35-0.83,0.63-1.21,0.84
			c-4.64,2.5-9.91,5.34-15.1,8.03c-3.44,1.78-4.68,3.9-3.7,6.32c0.64,1.57,2.13,2.47,4.1,2.47c0.93,0,1.96-0.2,3.06-0.58
			c2.86-1.01,5.03-1.86,7.04-2.76c1.7-0.76,3.39-1.63,5.03-2.47c0.4-0.2,0.8-0.41,1.2-0.61c1.5,2.13,3.57,2.44,5.45,2.44
			c0.41,0,0.82-0.01,1.24-0.03c0.39-0.01,0.77-0.03,1.16-0.03c0.45,0,0.84,0.02,1.18,0.07v13.88l-23.05,0l-1.12-0.01
			c-0.42,0-0.83,0.01-1.24,0.07c-2.35,0.29-3.9,1.99-3.96,4.32c-0.06,2.34,1.38,4.13,3.67,4.56c1.03,0.19,2.06,0.19,2.98,0.19
			c3.42,0.01,6.83,0.01,10.25,0.01c3.42,0,6.83,0,10.25,0.01c0.59,0,1.19,0.04,1.79,0.08c0,0.21,0,0.39-0.02,0.58
			c-0.94,7.03-4.45,12.92-10.7,18.03c-3.69,3.01-8.05,5.58-13.75,8.07l-0.46,0.2c-0.56,0.23-1.14,0.48-1.7,0.83
			c-2.14,1.35-2.96,3.37-2.2,5.41c0.68,1.83,2.32,2.92,4.37,2.92c0.23,0,0.46-0.01,0.7-0.04c1.05-0.12,2.19-0.4,3.48-0.87
			c5.39-1.94,10.05-4.36,14.26-7.37c9.11-6.53,14.36-15.13,15.59-25.58c0.08-0.67,0.23-1.33,0.39-2.04c0-0.01,0-0.02,0-0.02h26.71
			l0,9.38c-0.01,5.74-0.01,11.48,0.02,17.22c0.03,5.26,3.99,9.27,9.23,9.32c3.48,0.04,6.96,0.06,10.45,0.06
			c3.45,0,6.9-0.02,10.35-0.06c5.1-0.06,9.04-3.98,9.15-9.13c0.07-3.05,0.04-6.15,0.02-9.14l-0.01-2.25c0-0.91-0.1-1.63-0.29-2.26
			c-0.58-1.91-2.4-3.24-4.42-3.24c-1.14,0-2.2,0.45-2.96,1.26c-1.27,1.34-1.49,3.39-1.52,3.99c-0.11,1.84-0.09,3.69-0.08,5.48
			c0.01,0.96,0.02,1.92,0.01,2.88c-0.03,2.7-0.4,3.08-3.07,3.1c-2.33,0.01-4.66,0.02-6.99,0.02c-2.46,0-4.93-0.01-7.39-0.02
			c-2.91-0.01-3.21-0.31-3.22-3.17c-0.02-7.47-0.01-14.95,0-22.42c0-0.38,0.05-0.77,0.11-1.21l13.17,0c4.32,0,8.65,0,12.97-0.01
			c1.01,0,2.17-0.03,3.31-0.31c2.1-0.52,3.31-2.29,3.15-4.62C237.14,350.18,235.9,348.7,233.87,348.26z M195.18,334.34v13.59h-26.4
			v-13.59H195.18z"/>
		<linearGradient id="SVGID_5_" gradientUnits="userSpaceOnUse" x1="432.0801" y1="396.2993" x2="435.4594" y2="291.5426">
			<stop  offset="0" style="stop-color:#FF0069"/>
			<stop  offset="0.9944" style="stop-color:#FF6900"/>
		</linearGradient>
		<path class="st5" d="M467.41,353.05c0.94,0,2,0,3.02-0.25c1.94-0.46,3.16-2,3.04-3.84c-0.05-0.8-0.31-2.79-1.52-3.95
			c-0.95-0.92-2.45-1.05-3.65-1.15l-0.19-0.02c-0.61-0.05-1.21-0.07-1.82-0.07c-0.45,0-0.89,0.01-1.33,0.02
			c-0.11,0-0.21,0-0.32,0.01l-2.77-8.55l2.87-0.41c0.03,0.07,0.05,0.14,0.08,0.22c0.27,0.73,0.53,1.42,0.87,2.08
			c0.84,1.66,2.26,2.61,3.89,2.61c0.48,0,0.98-0.08,1.47-0.25c2.17-0.73,3.37-2.7,3.05-5.01c-0.22-1.58-0.45-3.21-0.93-4.8
			c-1.04-3.39-2-6.45-3.24-9.5c-0.69-1.68-2.3-2.77-4.12-2.77c-0.58,0-1.14,0.12-1.65,0.35c-1.25,0.57-2.61,1.92-1.94,5.16l0.81,4
			l-7.3,0.77c1.13-1.42,2.21-2.78,3.28-4.15c3.71-4.77,8.44-11.18,12.15-18.41c2.23-4.34,0.13-6.36-1.32-7.17
			c-0.77-0.43-1.54-0.65-2.29-0.65c-1.69,0-3.19,1.09-4.46,3.25l-5.47,9.31c-0.29,0.49-0.59,0.98-0.9,1.49
			c-0.36-0.39-0.69-0.74-1-1.1c-0.4-0.46-0.75-0.83-1.06-1.14c-0.98-1.03-0.98-1.03,0.54-3.47c1.94-3.1,3.84-6.28,5.68-9.36
			l1.07-1.79c1.19-2,1.04-3.96-0.45-5.53c-0.89-0.94-2.26-1.52-3.58-1.52c-0.77,0-1.47,0.2-2.04,0.58
			c-1.08,0.72-1.86,1.83-2.33,2.63c-1.99,3.41-3.94,6.84-5.89,10.27l-1.95,3.43c-2.4,4.21-2.3,5.5,0.68,9.25
			c1.21,1.52,2.43,3.04,3.66,4.58l0.97,1.21l-1.79,2.58c-0.49,0.7-1,1.39-1.5,2.09c-1.13,1.54-2.29,3.13-3.26,4.85
			c-1.55,2.74-1.14,4.58-0.53,5.64c0.88,1.51,2.74,2.34,5.27,2.34c1.04,0,2.05-0.11,3.13-0.23c0.18-0.02,0.37-0.04,0.56-0.06
			l1.89,6.94H443.7c-0.19-3.05-0.38-6.08-0.58-9.09c-0.5-7.85-1.02-15.97-1.43-23.91c-0.21-4.06-0.27-8.21-0.34-12.22
			c-0.04-2.56-0.08-5.12-0.16-7.68c-0.1-3.44-2.26-4.36-4.05-4.52c-0.2-0.02-0.4-0.03-0.59-0.03c-2.36,0-3.94,1.37-4.44,3.87
			c-0.2,1.02-0.2,2.05-0.18,3.02c0.04,2.03,0.08,4.07,0.11,6.1c0.08,5.18,0.17,10.53,0.46,15.8c0.34,6.17,0.83,12.44,1.31,18.49
			c0.23,2.95,0.46,5.89,0.68,8.84c0.04,0.51,0.03,1.01,0.02,1.58l-26.71,0c-0.76,0-1.57,0.01-2.38,0.13
			c-4.03,0.58-4.41,3.35-4.28,4.95c0.15,1.78,1.08,3.95,4.71,4.17c0.65,0.04,1.3,0.06,1.97,0.08c-1.16,9.65-4.23,18.01-9.39,25.53
			c-0.95,1.39-2.04,2.75-3.1,4.06c-0.59,0.74-1.19,1.48-1.76,2.23c-2.14,2.8-1.35,4.84-0.3,6.06c0.79,0.92,1.98,1.45,3.27,1.45
			c0.84,0,1.73-0.23,2.55-0.66c1.24-0.65,2.41-1.52,3.38-2.52c4.1-4.24,7.31-9.3,9.82-15.49c0.73-1.8,1.4-3.61,2.1-5.51
			c0.15-0.41,0.31-0.83,0.46-1.25c0.56,0.39,1.09,0.78,1.6,1.19c1.02,0.85,2.03,1.71,3.04,2.58c1.09,0.94,2.19,1.88,3.3,2.79
			c1.28,1.06,2.75,1.64,4.14,1.64c1.37,0,2.62-0.56,3.5-1.57c1.85-2.11,1.56-5.24-0.69-7.63c-0.49-0.51-1.03-1.05-1.67-1.46
			c-3.1-2-6.21-3.98-9.33-5.93c-0.55-0.34-1.13-0.64-1.74-0.96c-0.02-0.01-0.04-0.02-0.05-0.03l0.72-4.44h17.86l5.85,20.39
			c-0.44,0.3-0.92,0.61-1.41,0.83l-3.12,1.38c-3.85,1.71-7.83,3.48-11.81,5c-1.9,0.73-3.87,1.2-5.96,1.7
			c-0.99,0.24-1.99,0.48-2.97,0.74c-1.3,0.35-3.71,1.01-4.26,3.77c-0.33,1.67-0.02,3.19,0.87,4.28c0.84,1.03,2.15,1.59,3.67,1.59
			c0.49,0,1.01-0.06,1.54-0.17c3.56-0.77,7.26-1.76,11.31-3.02c5.97-1.86,11.77-4.51,17.25-7.88l0.76,0.81
			c1.07,1.15,2.11,2.28,3.2,3.37c3.67,3.7,7.23,5.92,11.2,7c0.82,0.23,1.6,0.34,2.32,0.34c2.3,0,4.11-1.13,5.4-3.37
			c0.62-1.08,1.36-2.51,1.58-4c0.65-4.53,1.16-9.14,1.65-13.61l0.04-0.42c0.1-0.9,0.03-1.9-0.21-2.88c-0.48-2.03-2.23-3.5-4.18-3.5
			c-0.09,0-0.18,0-0.28,0.01c-2.08,0.16-3.73,1.78-4.01,3.94c-0.07,0.55-0.07,1.08-0.07,1.6c0,0.4,0.01,0.8-0.04,1.19l-0.21,1.88
			c-0.24,2.24-0.49,4.56-0.92,6.78c-0.03,0.16-0.2,0.94-0.61,0.94c-0.09,0-0.29-0.03-0.59-0.22c-2.99-1.93-5.38-4-7.26-6.29
			c0.02-0.02,0.03-0.04,0.05-0.05c0.53-0.55,1.03-1.06,1.48-1.64c0.61-0.78,1.23-1.55,1.85-2.32c1.95-2.44,3.97-4.96,5.79-7.57
			c0.97-1.39,1.33-2.86,1.03-4.23c-0.27-1.25-1.09-2.33-2.3-3.04c-0.8-0.47-1.61-0.71-2.39-0.71c-1.56,0-2.98,0.89-4.33,2.73
			c-1.66,2.25-3.52,4.68-5.85,7.66c-0.12,0.15-0.26,0.29-0.42,0.45c-1.59-4.57-3.07-8.93-3.84-13.6l11.3,0
			C460.25,353.06,463.83,353.05,467.41,353.05z"/>
		<linearGradient id="SVGID_6_" gradientUnits="userSpaceOnUse" x1="303.1495" y1="392.1402" x2="306.5287" y2="287.3835">
			<stop  offset="0" style="stop-color:#FF0069"/>
			<stop  offset="0.9944" style="stop-color:#FF6900"/>
		</linearGradient>
		<path class="st6" d="M354.04,374.88c-0.64-1.51-1.92-2.34-3.62-2.34c-0.19,0-0.38,0.01-0.58,0.03c-1.83,0.19-3.07,1.28-3.4,2.99
			c-0.17,0.87-0.27,1.76-0.3,2.66c-0.03,0.78-0.02,1.55-0.02,2.33c0,0.61,0.01,1.22-0.01,1.84c-0.06,2.79-0.16,2.9-2.85,2.95
			l-36.25,0c-0.33,0-0.65,0-0.97-0.04c-1.4-0.15-1.67-0.56-1.73-1.63c-0.08-1.46-0.06-2.96-0.04-4.56c0-0.35,0.01-0.72,0.01-1.08
			h2.02c3.05,0,6.11-0.02,9.16-0.03c3.05-0.02,6.1-0.03,9.15-0.03c5.15,0,9.35,0.05,13.22,0.15l0.22,0c2.51,0,5.01-1.12,6.88-3.07
			c1.82-1.9,2.79-4.36,2.68-6.74c-0.3-6.52-0.3-13,0-19.26c0.12-2.42-0.81-4.79-2.62-6.69c-1.89-1.99-4.52-3.17-7.09-3.17
			c-12.69,0.08-25.35,0.12-37.63,0.12c-12.5,0-24.99-0.04-37.19-0.13c-2.58,0-5.17,1.17-7.11,3.2c-1.8,1.89-2.76,4.29-2.65,6.59
			c0.33,6.67,0.33,13.06-0.01,18.97c-0.14,2.51,0.84,5.08,2.7,7.05c1.89,2,4.45,3.14,7.04,3.14l0.28,0
			c3.61-0.11,7.51-0.17,12.29-0.17c2.88,0,5.76,0.02,8.64,0.04c2.89,0.02,5.77,0.04,8.66,0.04h2.05v1.35c0,1.88,0,3.66,0,5.43
			c0.02,3.73,1.93,6.58,5.54,8.22c1.5,0.69,3.28,0.78,4.82,0.79c6.69,0.03,13.37,0.03,20.06,0.03l18.44-0.01
			c0.71,0,1.53-0.01,2.35-0.1c5.31-0.63,8.13-3.65,8.37-8.99c0.11-2.46,0.06-4.91,0-7.28C354.58,376.61,354.38,375.69,354.04,374.88
			z M336.2,369.75c-0.15,0-0.3-0.01-0.45-0.02c-0.19-0.01-0.38-0.02-0.55-0.02l-14.93,0.01l-14.94-0.01c-0.31,0-0.62-0.02-0.97-0.05
			v-6.9c2.7-0.25,10.84-0.48,20.72-0.48c5.84,0,10.52,0.09,13.15,0.25c0.23,1.99,0.18,4.01-0.14,5.88
			c-0.12,0.35-1.16,1.03-1.61,1.33C336.48,369.72,336.41,369.75,336.2,369.75z M338.3,353.65v0.28h-33.87v-6.36
			c0.48-0.03,0.92-0.06,1.37-0.06c5.72,0,11.44-0.01,17.16-0.01l11.85,0.01c3.17,0,3.46,0.3,3.49,3.49
			C338.3,351.85,338.3,352.7,338.3,353.65z M264.7,369.69c-1.55-0.16-1.83-0.68-1.89-1.79c-0.07-1.41-0.06-2.85-0.04-4.38
			c0-0.32,0.01-0.65,0.01-0.98h32.02v7.11c-0.32,0.03-0.64,0.06-0.96,0.06c-4.92,0.01-28.44,0.01-28.44,0.01
			C265.17,369.72,264.93,369.71,264.7,369.69z M262.87,348.93c0.04-0.49,0.12-1.39,2.49-1.42c1.63-0.02,3.25-0.03,4.88-0.03
			l24.64,0.01v6.36h-32.06c0-0.24-0.01-0.47-0.01-0.71C262.78,351.69,262.75,350.31,262.87,348.93z"/>
		<linearGradient id="SVGID_7_" gradientUnits="userSpaceOnUse" x1="298.5773" y1="391.9927" x2="301.9565" y2="287.236">
			<stop  offset="0" style="stop-color:#FF0069"/>
			<stop  offset="0.9944" style="stop-color:#FF6900"/>
		</linearGradient>
		<path class="st7" d="M256.94,325.17c0.24-0.94,0.25-1.91,0.26-2.77c0.01-1.5,0.01-2.99,0.01-4.49c0-1.83-0.01-3.65,0.01-5.48
			c0.03-2.45,0.24-2.66,2.8-2.73l7.27,0c0,0,20.27,0,27.03,0.01c0.46,0,0.92,0.05,1.45,0.11l0,7.42c0,4.69-0.01,9.38,0.02,14.07
			c0.01,1.55,0.15,2.78,0.44,3.86c0.53,2,2.01,3.1,4.17,3.1c0.15,0,0.31,0,0.48-0.02c2.32-0.16,3.76-1.5,4.06-3.78
			c0.1-0.74,0.1-1.47,0.09-2.18l0-8.56c0-4.04,0-8.09,0.01-12.13c0-0.63,0.04-1.26,0.09-1.88c0,0,17.06-0.02,22.27-0.02
			c5.02,0,10.05,0.01,15.08,0.02c1.69,0.01,2.24,0.34,2.37,2.43c0.05,0.74,0.04,1.48,0.03,2.22l-0.01,1.03l0,2.56
			c0,2.01,0,4.03,0.03,6.04c0.04,2.55,1.47,3.69,2.65,4.19c0.7,0.29,1.4,0.44,2.07,0.44c1.19,0,2.23-0.47,2.93-1.33
			c0.87-1.07,1.45-2.69,1.5-4.23c0.11-3.12,0.09-6.27,0.07-9.33l-0.01-3.17c0-3.49-1.56-6.25-4.37-7.75
			c-1.85-0.99-4.15-1.56-6.33-1.58c-6.04-0.06-12.08-0.08-18.12-0.08l-20.18,0.02c-0.01-0.3-0.03-0.59-0.04-0.88
			c-0.07-1.32-0.13-2.49,0.13-3.66h2.17c0,0,24.31,0,29.63-0.01c0.98,0,2.09,0,3.21-0.16c1.85-0.27,3.07-1.61,3.25-3.58
			c0.19-2.05-0.9-3.67-2.85-4.23c-0.96-0.27-1.95-0.31-2.79-0.31c-12.37-0.01-24.74-0.01-37.11-0.01c-12.37,0-24.74,0-37.11,0.01
			c-0.8,0-1.84,0.04-2.81,0.34c-1.94,0.6-2.97,2.2-2.75,4.29c0.2,1.93,1.44,3.24,3.32,3.5c1.08,0.15,2.16,0.15,3.2,0.15l31.02,0
			v4.54l-29.53,0c-0.86,0-4.33-0.02-5.2-0.02c-1.14,0-2.28,0.01-3.41,0.04c-4.98,0.14-9.09,3.49-9.36,7.63
			c-0.31,4.66-0.21,9.41-0.11,13.99l0.03,1.61c0.04,2.32,1.74,4,4.21,4.18c0.12,0.01,0.24,0.01,0.36,0.01
			C254.68,328.62,256.4,327.26,256.94,325.17z"/>
		<linearGradient id="SVGID_8_" gradientUnits="userSpaceOnUse" x1="380.3628" y1="394.631" x2="383.742" y2="289.8743">
			<stop  offset="0" style="stop-color:#FF0069"/>
			<stop  offset="0.9944" style="stop-color:#FF6900"/>
		</linearGradient>
		<path class="st8" d="M395.79,350.67c0.58,0,1.19-0.12,1.85-0.37c2.52-0.94,3.63-3.07,3.05-5.83c-0.24-1.11-0.68-2.16-1.07-3.08
			c-2.57-6.07-6.25-11.29-10.98-17.26c-0.15-0.19-0.33-0.39-0.51-0.58c-0.21-0.23-0.56-0.61-0.6-0.72c-0.1-2.44-0.09-4.85-0.07-7.39
			c0-0.52,0.01-1.04,0.01-1.57c0.39-0.03,0.72-0.06,1.06-0.06l1.13,0l2.92,0.01c1.15,0,2.31-0.01,3.46-0.06
			c2.81-0.12,4.5-1.69,4.63-4.32c0.13-2.58-1.39-4.39-4.08-4.86c-0.69-0.12-1.38-0.14-2.02-0.14l-0.94,0
			c-1.02-0.01-6.28-0.01-6.28-0.01v-2.41c0-2.76,0-5.34-0.01-7.93l0-1.08c0.01-1.23,0.02-2.5-0.14-3.77
			c-0.32-2.54-2.03-4.12-4.48-4.12c-0.13,0-0.25,0-0.38,0.01c-2.53,0.16-4.1,1.82-4.2,4.44c-0.08,2.21-0.07,4.44-0.06,6.6
			c0.01,0.86,0.01,1.72,0.01,2.58l0,5.67l-3.44-0.01c-1.12,0-2.23,0-3.33,0.02l-0.37,0c-1.04,0.01-2.12,0.02-3.19,0.27
			c-2.49,0.59-3.74,2.35-3.52,4.95c0.2,2.39,1.73,3.87,4.18,4.05c1.07,0.08,2.11,0.09,2.99,0.09l6.2,0c0,0.02,0,0.04-0.01,0.06
			c-0.07,0.8-0.13,1.48-0.26,2.11c-1.83,8.8-4.16,16.4-7.13,23.24c-1.62,3.72-3.45,7.43-5.23,11.03l-1.18,2.39
			c-0.62,1.26-1.77,3.61,0.07,5.93c0.97,1.22,2.35,1.92,3.79,1.92c1.62,0,3.08-0.87,4.01-2.38c2.07-3.38,3.91-6.95,5.69-10.4
			l0.52-1.01c0.18,13.97,0.19,28,0.19,41.63l-0.01,0.9c-0.01,0.73-0.02,1.49,0.07,2.26c0.29,2.6,1.9,4.13,4.41,4.19l0.14,0
			c2.43,0,4.07-1.44,4.49-3.96c0.16-0.95,0.15-1.9,0.15-2.81l0-50.56c0.28,0.59,0.56,1.19,0.84,1.78c1.17,2.49,2.34,4.97,3.54,7.45
			C392.73,349.65,394.07,350.67,395.79,350.67z"/>
		<linearGradient id="SVGID_9_" gradientUnits="userSpaceOnUse" x1="414.2423" y1="395.7239" x2="417.6215" y2="290.9672">
			<stop  offset="0" style="stop-color:#FF0069"/>
			<stop  offset="0.9944" style="stop-color:#FF6900"/>
		</linearGradient>
		<path class="st9" d="M405.8,328.24c-0.88,1.49-1.51,2.57-3.08,2.96c-2.22,0.55-3.29,3.02-2.9,4.98c0.41,2.02,2.05,3.38,4.3,3.54
			c0.21,0.01,0.41,0.02,0.62,0.02c0.46,0,0.91-0.04,1.33-0.11c4.53-0.81,9.05-1.63,13.58-2.47c1.03-0.19,2.06-0.4,3.1-0.61
			l0.42-0.08l0.01,0.03c0.23,0.69,0.43,1.29,0.67,1.88c1.12,2.75,3.07,3.17,4.14,3.16c0.36,0,0.74-0.04,1.13-0.13
			c1.2-0.27,2.19-0.96,2.8-1.93c0.61-0.97,0.78-2.12,0.5-3.33c-1.32-5.64-2.87-11.14-4.21-15.79c-0.35-1.2-1.59-2.23-2.63-2.61
			c-0.55-0.21-1.11-0.31-1.65-0.31c-0.62,0-1.21,0.14-1.73,0.4c2.64-4.44,4.97-8.93,6.91-12.79c1.27-2.51,0.58-4.92-1.73-6.14
			c-0.75-0.4-1.54-0.6-2.33-0.6c-1.73,0-3.28,0.96-4.25,2.64c-0.85,1.47-1.63,2.99-2.38,4.47c-0.37,0.73-0.74,1.45-1.13,2.18
			c-0.67,1.27-1.35,2.53-2.1,3.93l-0.04,0.08c-0.02-0.02-0.03-0.04-0.05-0.06c-0.84-1.04-1.6-1.98-2.4-2.87
			c-0.77-0.86-0.81-1.47-0.15-2.51c1.89-3.03,3.74-6.15,5.53-9.17l1.33-2.24c0.44-0.75,0.9-1.55,1.21-2.43
			c0.46-1.3,0.42-2.56-0.14-3.63c-0.55-1.06-1.59-1.85-2.91-2.21c-0.54-0.15-1.03-0.22-1.49-0.22c-2.12,0-3.27,1.55-3.95,2.72
			c-2.25,3.82-4.47,7.66-6.69,11.5l-1.66,2.86c-2.55,4.4-2.47,5.56,0.7,9.48c1.51,1.87,3,3.77,4.49,5.66l1.5,1.91l-1.25,2.1
			C408.08,324.4,406.96,326.27,405.8,328.24z M414.51,329.45c0.43-0.62,0.85-1.23,1.27-1.83c1.51-2.17,2.95-4.26,4.32-6.38
			c-0.02,0.4,0,0.81,0.07,1.23c0.28,1.64,0.66,3.22,1.06,4.89c0.08,0.33,0.16,0.65,0.24,0.99L414.51,329.45z"/>
		<linearGradient id="SVGID_10_" gradientUnits="userSpaceOnUse" x1="323.6387" y1="392.8012" x2="327.018" y2="288.0445">
			<stop  offset="0" style="stop-color:#FF0069"/>
			<stop  offset="0.9944" style="stop-color:#FF6900"/>
		</linearGradient>
		<path class="st10" d="M313.57,334c0.78,0.16,1.54,0.18,2.49,0.18h0.23c2.98,0.01,5.95,0.01,8.93,0.01l7.97,0
			c0.33,0,0.66,0.02,0.99,0.03c0.36,0.02,0.73,0.03,1.09,0.03c0.69,0,1.25-0.05,1.76-0.17c0.75-0.17,2.57-0.71,3.47-2.01
			c0.81-1.18,0.91-2.61,0.29-3.83c-0.69-1.35-2.15-2.21-3.81-2.25c-1.49-0.04-2.99-0.05-4.49-0.05c-1.1,0-4.7,0.02-5.4,0.02v-0.01
			h-5.37l-4.15-0.02c-1.12,0-2.24,0.01-3.36,0.05c-2.36,0.09-4,1.65-4.07,3.9C310.08,331.9,311.46,333.56,313.57,334z"/>
		<linearGradient id="SVGID_11_" gradientUnits="userSpaceOnUse" x1="322.8283" y1="392.775" x2="326.2075" y2="288.0183">
			<stop  offset="0" style="stop-color:#FF0069"/>
			<stop  offset="0.9944" style="stop-color:#FF6900"/>
		</linearGradient>
		<path class="st11" d="M318.66,322.03l7.56-0.03l5.74,0.02c1.57,0,3.14-0.01,4.71-0.04c2.31-0.05,3.74-1.37,3.94-3.61
			c0.21-2.32-1.06-3.98-3.39-4.45c-0.63-0.12-1.24-0.14-1.82-0.14l-10.15-0.01c-3.27,0-6.54,0-9.81,0.01
			c-0.84,0-1.81,0.02-2.76,0.27c-1.69,0.44-2.71,1.72-2.82,3.51c-0.08,1.37,0.24,2.46,0.94,3.22c0.71,0.77,1.77,1.17,3.16,1.2
			C315.53,322.02,317.09,322.03,318.66,322.03z"/>
		<linearGradient id="SVGID_12_" gradientUnits="userSpaceOnUse" x1="274.0931" y1="391.2029" x2="277.4724" y2="286.4462">
			<stop  offset="0" style="stop-color:#FF0069"/>
			<stop  offset="0.9944" style="stop-color:#FF6900"/>
		</linearGradient>
		<path class="st12" d="M270.12,322.03l6.3-0.01l6.41,0.01c1.46,0,2.93-0.01,4.39-0.03c3.68-0.05,4.45-2.23,4.45-4.05
			c0-1.53-0.58-4.09-4.44-4.13c-3.63-0.04-7.26-0.05-10.89-0.05c-3.47,0-6.94,0.01-10.41,0.05c-1.59,0.01-2.81,0.46-3.64,1.33
			c-0.72,0.76-1.07,1.79-1.02,2.99c0.06,1.42,0.74,3.82,4.64,3.87C267.31,322.02,268.71,322.03,270.12,322.03z"/>
		<linearGradient id="SVGID_13_" gradientUnits="userSpaceOnUse" x1="274.7569" y1="391.2243" x2="278.1361" y2="286.4676">
			<stop  offset="0" style="stop-color:#FF0069"/>
			<stop  offset="0.9944" style="stop-color:#FF6900"/>
		</linearGradient>
		<path class="st13" d="M265.35,334.06c0.64,0.12,1.28,0.13,1.82,0.13l4.74,0l11.65,0l1.96,0.01c0.64,0,1.47-0.01,2.32-0.11
			c2.93-0.33,3.69-2.18,3.82-3.68c0.11-1.32-0.19-2.39-0.89-3.16c-0.76-0.84-1.95-1.27-3.53-1.29c-2.09-0.02-4.18-0.03-6.27-0.03
			l-7.86,0.01l-4.08-0.02c-1.05,0-2.1,0.01-3.16,0.05c-2.52,0.09-3.96,1.43-4.07,3.8C261.69,332.1,262.95,333.62,265.35,334.06z"/>
		<g>
			<g>
				<linearGradient id="SVGID_14_" gradientUnits="userSpaceOnUse" x1="302.6346" y1="468.5664" x2="302.6346" y2="428.5287">
					<stop  offset="0" style="stop-color:#FF0069"/>
					<stop  offset="0.9944" style="stop-color:#FF6900"/>
				</linearGradient>
				<path class="st14" d="M340.64,451.64c0,1.65-1.33,3.25-2.95,3.56l-70.12,13.32c-1.62,0.31-2.95-0.79-2.95-2.44v-20.62
					c0-1.65,1.33-3.25,2.95-3.56l70.12-13.32c1.62-0.31,2.95,0.79,2.95,2.44V451.64z"/>
			</g>
			<g>
				<linearGradient id="SVGID_15_" gradientUnits="userSpaceOnUse" x1="302.6346" y1="505.2004" x2="302.6346" y2="465.1626">
					<stop  offset="0" style="stop-color:#FF0069"/>
					<stop  offset="0.9944" style="stop-color:#FF6900"/>
				</linearGradient>
				<path class="st15" d="M340.64,488.27c0,1.65-1.33,3.25-2.95,3.56l-70.12,13.32c-1.62,0.31-2.95-0.79-2.95-2.44v-20.62
					c0-1.65,1.33-3.25,2.95-3.56l70.12-13.32c1.62-0.31,2.95,0.79,2.95,2.44V488.27z"/>
			</g>
			<g>
				<linearGradient id="SVGID_16_" gradientUnits="userSpaceOnUse" x1="302.6346" y1="541.8344" x2="302.6346" y2="501.7966">
					<stop  offset="0" style="stop-color:#FF0069"/>
					<stop  offset="0.9944" style="stop-color:#FF6900"/>
				</linearGradient>
				<path class="st16" d="M340.64,524.9c0,1.65-1.33,3.25-2.95,3.56l-70.12,13.32c-1.62,0.31-2.95-0.79-2.95-2.44v-20.62
					c0-1.65,1.33-3.25,2.95-3.56l70.12-13.32c1.62-0.31,2.95,0.79,2.95,2.44V524.9z"/>
			</g>
		</g>
	</g>
</g>
</svg>
